<svg width="636" height="594" viewBox="0 0 636 594" fill="none" xmlns="http://www.w3.org/2000/svg">
<path d="M320.484 150.82C382.594 145.02 439.734 185.625 455.883 243.633C474.516 312.082 433.523 385.172 360.234 410.695C342.844 417.656 327.937 421.137 318 422.297C306.82 423.457 291.914 419.977 273.281 413.016C198.75 384.012 159 313.242 178.875 243.633C195.023 186.785 250.922 150.82 320.484 150.82Z" fill="url(#paint0_linear_2_70)" stroke="black" stroke-width="14" stroke-linejoin="round"/>
<path d="M267.07 197.227C244.711 212.309 239.742 238.992 253.406 258.715" stroke="black" stroke-width="10" stroke-linecap="round"/>
<path d="M305.578 185.625C281.977 213.469 280.734 243.633 295.641 271.477" stroke="black" stroke-width="10" stroke-linecap="round"/>
<path d="M347.812 185.625C366.445 208.828 367.688 241.312 354.023 264.516" stroke="black" stroke-width="10" stroke-linecap="round"/>
<path d="M388.805 199.547C411.164 218.109 416.133 247.113 401.227 271.477" stroke="black" stroke-width="10" stroke-linecap="round"/>
<path d="M231.047 284.238C253.406 307.441 280.734 322.523 308.062 328.324" stroke="black" stroke-width="10" stroke-linecap="round"/>
<path d="M404.953 285.398C383.836 308.602 356.508 322.523 329.18 328.324" stroke="black" stroke-width="10" stroke-linecap="round"/>
<path d="M272.039 314.402C279.586 314.402 285.703 307.13 285.703 298.16C285.703 289.19 279.586 281.918 272.039 281.918C264.493 281.918 258.375 289.19 258.375 298.16C258.375 307.13 264.493 314.402 272.039 314.402Z" fill="black"/>
<path d="M366.445 314.402C373.992 314.402 380.109 307.13 380.109 298.16C380.109 289.19 373.992 281.918 366.445 281.918C358.899 281.918 352.781 289.19 352.781 298.16C352.781 307.13 358.899 314.402 366.445 314.402Z" fill="black"/>
<path d="M267.07 297.58C269.471 297.58 271.418 295.762 271.418 293.52C271.418 291.277 269.471 289.459 267.07 289.459C264.669 289.459 262.723 291.277 262.723 293.52C262.723 295.762 264.669 297.58 267.07 297.58Z" fill="white"/>
<path d="M361.477 297.58C363.878 297.58 365.824 295.762 365.824 293.52C365.824 291.277 363.878 289.459 361.477 289.459C359.075 289.459 357.129 291.277 357.129 293.52C357.129 295.762 359.075 297.58 361.477 297.58Z" fill="white"/>
<path d="M290.672 344.566C308.062 363.129 330.422 363.129 347.812 344.566" stroke="black" stroke-width="12" stroke-linecap="round"/>
<defs>
<linearGradient id="paint0_linear_2_70" x1="217.383" y1="150.82" x2="429.035" y2="420.311" gradientUnits="userSpaceOnUse">
<stop stop-color="white"/>
<stop offset="1" stop-color="white"/>
</linearGradient>
</defs>
</svg>
